<svg xmlns="http://www.w3.org/2000/svg" viewBox="0 0 727 852" fill="none">
  <path fill="#000000" transform="matrix(-1 0 0 1 983 -118)" d="M534.336 152.955C543.446 152.279 552.47 156.218 560.412 160.25C595.082 177.859 627.777 200.924 658.774 224.259C760.928 301.158 910.673 442.644 950.009 563.12C960.386 594.902 964.157 629.845 948.373 660.523C932.741 690.907 905.739 717.054 880.12 739.086C787.696 818.573 656.487 884.281 540.374 921.104C474.786 940.984 379.442 963.403 313.066 934.56C302.32 929.015 281.774 919.861 276.666 908.55C272.37 899.038 295.84 894.086 301.966 893.124C374.569 881.596 451.682 880.832 522.789 861.524C592.77 842.521 655.979 813.068 654.117 730.312C652.835 673.386 641.044 621.908 626.246 567.313C612.343 517.196 597.22 467.425 580.89 418.044C564.985 368.679 548.276 318.683 534.391 268.25L534.079 267.123L534.077 267.116C527.271 242.409 511.266 184.303 522.985 160.754C525.203 156.295 529.562 154.097 534.336 152.955Z"/>
</svg>
